<?xml version="1.0" encoding="UTF-8" standalone="no"?>
<!-- Created with Inkscape (http://www.inkscape.org/) -->

<svg
   xmlns:dc="http://purl.org/dc/elements/1.1/"
   xmlns:cc="http://creativecommons.org/ns#"
   xmlns:rdf="http://www.w3.org/1999/02/22-rdf-syntax-ns#"
   xmlns:svg="http://www.w3.org/2000/svg"
   xmlns="http://www.w3.org/2000/svg"
   xmlns:sodipodi="http://sodipodi.sourceforge.net/DTD/sodipodi-0.dtd"
   xmlns:inkscape="http://www.inkscape.org/namespaces/inkscape"
   width="182mm"
   height="113mm"
   viewBox="0 0 182 113"
   version="1.1"
   id="svg491"
   inkscape:version="0.92.5 (2060ec1f9f, 2020-04-08)"
   sodipodi:docname="logo.svg">
  <defs
     id="defs485" />
  <sodipodi:namedview
     id="base"
     pagecolor="#ffffff"
     bordercolor="#666666"
     borderopacity="1.0"
     inkscape:pageopacity="0.0"
     inkscape:pageshadow="2"
     inkscape:zoom="0.9899495"
     inkscape:cx="301.85793"
     inkscape:cy="235.65136"
     inkscape:document-units="mm"
     inkscape:current-layer="layer2"
     showgrid="false"
     inkscape:window-width="1868"
     inkscape:window-height="1009"
     inkscape:window-x="52"
     inkscape:window-y="34"
     inkscape:window-maximized="1" />
  <metadata
     id="metadata488">
    <rdf:RDF>
      <cc:Work
         rdf:about="">
        <dc:format>image/svg+xml</dc:format>
        <dc:type
           rdf:resource="http://purl.org/dc/dcmitype/StillImage" />
        <dc:title></dc:title>
      </cc:Work>
    </rdf:RDF>
  </metadata>
  <g
     inkscape:label="Ebene 1"
     inkscape:groupmode="layer"
     id="layer1"
     transform="translate(0,-184)">
    <path
       id="path678"
       transform="scale(0.26458333)"
       style="fill:#f9f9f9;fill-opacity:1;fill-rule:nonzero;stroke:none;stroke-width:3.77952766"
       d="m 189.62109,610.87695 c -3.75256,0.0441 -5.94306,4.20233 -1.89453,9.36719 3.9689,5.06324 7.6458,10.36964 12.5,14.66016 3.16142,2.79431 6.96547,4.87279 10.41992,7.27343 1.92399,1.19978 3.20222,3.02141 5.01758,4.34961 3.89043,2.84651 1.61753,0.90842 3.82227,2.40235 -0.40384,-0.86753 -1.19407,-2.35433 -0.95117,-2.05664 1.01611,1.24528 1.77863,2.69458 2.42968,4.16406 0.003,0.006 -0.002,0.003 0,0.008 1.26989,1.15581 1.32614,1.22592 2.82227,1.5918 0.12673,0.16228 1.33542,0.74638 1.75586,0.94726 9.02299,4.31112 13.27055,-5.09874 4.1543,-9.20898 -0.54242,-0.24455 -1.08696,-0.48532 -1.63086,-0.72656 -0.30307,-0.32057 -0.61312,-0.63978 -0.77344,-0.80078 -0.70065,-0.75032 -1.32722,-1.57799 -2.10156,-2.25196 -0.9072,-0.78958 -2.04466,-1.11826 -3.01758,-1.79101 -2.09351,-1.44767 -3.48732,-3.71411 -5.77735,-4.93164 -1.16647,-0.80489 -2.31639,-1.63657 -3.5,-2.41602 -2.19632,-1.44642 -3.38051,-1.841 -5.52734,-3.69531 -4.40075,-3.80107 -7.62935,-8.61776 -11.23828,-13.11914 -2.15024,-2.68195 -4.54414,-3.78873 -6.50977,-3.76563 z m 31.34375,40.16797 c -0.28399,-0.25848 -0.484,-0.44918 -0.95898,-0.85351 -0.31956,-0.27214 1.08156,1.18174 0.95898,0.85351 z m -1.47851,-2.11523 c 0.0128,0.0276 0.0271,0.0578 0.0391,0.084 0.2609,0.14481 0.49679,0.27493 0.34961,0.17188 -0.2191,-0.15342 -0.22526,-0.14513 -0.38867,-0.25586 z m 0.0391,0.084 c -0.14557,-0.0808 -0.30565,-0.1704 -0.39453,-0.21679 0.71788,1.04636 0.66447,0.80702 0.39453,0.21679 z"
       inkscape:connector-curvature="0" />
  </g>
  <g
     inkscape:groupmode="layer"
     id="layer2"
     inkscape:label="Ebene 2"
     transform="translate(0,-184)">
    <g
       id="g751"
       transform="translate(-42.030955,2.2678535)">
      <path
         inkscape:connector-curvature="0"
         id="path740"
         d="m 120.84293,293.08437 c -1.16417,-1.02743 -3.9026,-3.38845 -6.08542,-5.24672 -9.39223,-7.99575 -17.522044,-15.03513 -19.843594,-17.182 -9.35911,-8.65495 -19.5377,-19.64624 -23.529004,-25.40766 -0.654989,-0.94548 -1.286828,-1.83811 -1.40408,-1.98363 -0.674513,-0.83712 -3.109749,-4.86574 -4.242661,-7.01865 -8.282604,-15.73973 -6.71564,-32.46741 4.077783,-43.53124 4.914852,-5.03799 10.701072,-8.25312 17.424892,-9.68222 3.77973,-0.80335 9.52724,-0.79633 13.361464,0.0163 8.5657,1.81548 16.40187,7.08706 20.97747,14.11205 0.73459,1.12783 1.4134,2.05061 1.50845,2.05061 0.0951,0 0.8766,-1.0418 1.7368,-2.31511 3.83245,-5.67304 9.91398,-10.3291 16.45934,-12.6014 10.60293,-3.68093 21.96108,-1.96839 30.88772,4.65714 6.63845,4.92718 11.40368,12.43355 13.00779,20.49032 0.64282,3.22867 0.64165,10.16954 -0.002,13.44925 -1.82645,9.30264 -6.10753,17.50692 -14.35851,27.51667 -5.86125,7.11062 -17.8393,19.10254 -25.76678,25.79658 -0.94588,0.79872 -1.77932,1.51322 -1.85208,1.58779 -0.11349,0.11632 -1.32582,1.15017 -4.22876,3.60621 -1.42317,1.20408 -6.83703,5.8323 -8.47124,7.24194 -0.94589,0.8159 -2.98945,2.57838 -4.54126,3.91661 -1.55181,1.33824 -2.8615,2.42462 -2.91042,2.41418 -0.0489,-0.0105 -1.04144,-0.85961 -2.20561,-1.88705 z"
         style="fill:#ffaaaa;stroke-width:0.26458332" />
      <path
         mask="none"
         inkscape:connector-curvature="0"
         id="path504"
         d="m 120.84322,284.61762 c -0.43262,-0.30186 -0.78661,-0.63386 -0.78661,-0.73772 0,-0.27394 -21.00713,-55.02172 -21.35139,-55.64496 -0.38182,-0.69129 -0.30169,-0.87651 -5.44053,12.57383 -2.38532,6.24325 -4.6886,11.62643 -5.1184,11.96261 -0.7217,0.56447 -2.4543,0.61123 -22.65108,0.61123 -21.11111,0 -21.90052,-0.0237 -22.76061,-0.68698 -1.15141,-0.88774 -1.14212,-2.44853 0.019,-3.04046 0.71973,-0.36722 5.06254,-0.46384 20.84837,-0.46384 h 19.93922 l 0.44372,-0.81435 c 0.24406,-0.44788 2.95752,-7.40279 6.02995,-15.45536 5.71418,-14.97635 6.18828,-15.86342 8.47824,-15.86342 2.03194,0 2.61286,0.89773 5.5462,8.57052 1.61289,4.21886 4.2972,11.20707 5.96515,15.52931 1.66794,4.32226 5.21552,13.55619 7.8835,20.51983 2.66796,6.96363 4.98988,12.66114 5.15978,12.66114 0.16988,0 0.77434,-1.29668 1.34322,-2.88149 4.28822,-11.94654 14.33543,-37.16941 15.01452,-37.693 1.05345,-0.81219 2.92174,-0.82096 4.05341,-0.0191 0.51399,0.36422 2.00678,3.60947 3.61233,7.85288 1.50496,3.97769 2.88267,7.11686 3.0615,6.97596 0.17881,-0.14083 1.13429,-2.37802 2.12318,-4.97138 0.98886,-2.59336 4.18249,-10.92352 7.09692,-18.51148 2.91443,-7.58796 5.52022,-14.37862 5.79065,-15.09034 0.63242,-1.66442 1.67568,-2.37331 3.4928,-2.37331 1.77134,0 2.54494,0.78095 3.63276,3.66736 0.4344,1.1526 3.84381,10.05709 7.57653,19.78775 3.73269,9.73065 6.78669,17.78579 6.78669,17.90025 0,0.1145 7.86775,0.20815 17.48388,0.20815 19.20511,0 19.05706,-0.0159 19.05706,2.10078 0,2.06338 -0.27296,2.09049 -21.05736,2.09049 -17.74324,0 -18.88122,-0.0377 -19.67732,-0.65148 -0.46475,-0.35832 -1.38485,-2.04794 -2.04467,-3.75469 -0.65985,-1.70677 -3.48096,-9.07578 -6.26915,-16.37559 -5.96407,-15.61466 -5.48705,-14.54802 -6.05045,-13.52821 -0.24056,0.43558 -3.72846,9.39443 -7.75075,19.90855 -4.02228,10.51415 -7.63729,19.47026 -8.03342,19.90249 -0.87964,0.9599 -3.20603,1.05397 -4.31863,0.17457 -0.42536,-0.33618 -1.93565,-3.67611 -3.35623,-7.42206 -1.42057,-3.74596 -2.71518,-7.04659 -2.87685,-7.33474 -0.39392,-0.70191 -0.53374,-0.36533 -8.70524,20.9564 -3.86517,10.08526 -7.35739,18.69048 -7.76058,19.12271 -0.87145,0.93428 -3.24688,1.06141 -4.42839,0.237 z"
         style="fill:#000000;stroke-width:0.41812965"
         sodipodi:nodetypes="cscscsccsccssscsscccccccsscssssscsscsccccsccc" />
    </g>
  </g>
</svg>
