<?xml version="1.0" encoding="UTF-8" standalone="no"?>
<!-- Created with Inkscape (http://www.inkscape.org/) -->

<svg
   xmlns:dc="http://purl.org/dc/elements/1.1/"
   xmlns:cc="http://creativecommons.org/ns#"
   xmlns:rdf="http://www.w3.org/1999/02/22-rdf-syntax-ns#"
   xmlns:svg="http://www.w3.org/2000/svg"
   xmlns="http://www.w3.org/2000/svg"
   xmlns:sodipodi="http://sodipodi.sourceforge.net/DTD/sodipodi-0.dtd"
   xmlns:inkscape="http://www.inkscape.org/namespaces/inkscape"
   width="210mm"
   height="297mm"
   viewBox="0 0 210 297"
   version="1.1"
   id="svg8"
   inkscape:version="0.92.5 (2060ec1f9f, 2020-04-08)"
   sodipodi:docname="spaziern.svg">
  <defs
     id="defs2" />
  <sodipodi:namedview
     id="base"
     pagecolor="#ffffff"
     bordercolor="#666666"
     borderopacity="1.0"
     inkscape:pageopacity="0.0"
     inkscape:pageshadow="2"
     inkscape:zoom="1.979899"
     inkscape:cx="334.10537"
     inkscape:cy="973.39593"
     inkscape:document-units="mm"
     inkscape:current-layer="layer1"
     showgrid="false"
     inkscape:window-width="1868"
     inkscape:window-height="1009"
     inkscape:window-x="52"
     inkscape:window-y="34"
     inkscape:window-maximized="1" />
  <metadata
     id="metadata5">
    <rdf:RDF>
      <cc:Work
         rdf:about="">
        <dc:format>image/svg+xml</dc:format>
        <dc:type
           rdf:resource="http://purl.org/dc/dcmitype/StillImage" />
        <dc:title></dc:title>
      </cc:Work>
    </rdf:RDF>
  </metadata>
  <g
     inkscape:label="Ebene 1"
     inkscape:groupmode="layer"
     id="layer1">
    <path
       style="fill:#000000;stroke-width:0.12445466"
       d="m 3.7688387,75.368779 c 0,-0.146352 0.04116,-0.266095 0.09147,-0.266095 0.05031,0 0.09147,0.119743 0.09147,0.266095 0,0.146353 -0.04116,0.266095 -0.09147,0.266095 -0.05031,0 -0.09147,-0.119742 -0.09147,-0.266095 z m -0.399143,0 c 0,-0.07318 0.05239,-0.133047 0.116417,-0.133047 0.06403,0 0.116416,0.05987 0.116416,0.133047 0,0.07318 -0.05239,0.133048 -0.116416,0.133048 -0.06403,0 -0.116417,-0.05987 -0.116417,-0.133048 z m 0.267722,-0.712253 c -0.0512,-0.09903 -0.171678,-0.21405 -0.267722,-0.255591 -0.09604,-0.04154 0.01874,-0.08026 0.255067,-0.08603 0.464261,-0.01135 0.668424,0.185467 0.449676,0.433493 -0.104043,0.117968 -0.118031,0.09941 -0.05889,-0.07812 0.05518,-0.165661 0.01999,-0.232833 -0.121975,-0.232833 -0.129536,0 -0.176028,0.07001 -0.132526,0.199571 0.08349,0.248638 0.0015,0.261572 -0.123627,0.01951 z m 0.02332,-0.618223 c -0.09611,-0.177728 0.03305,-0.399143 0.232834,-0.399143 0.232672,0 0.340027,0.263535 0.180867,0.443997 -0.104042,0.117968 -0.118031,0.09941 -0.05889,-0.07812 0.05519,-0.165662 0.02,-0.232833 -0.121975,-0.232833 -0.129536,0 -0.176027,0.07001 -0.132525,0.199571 0.07561,0.225171 0.0093,0.269161 -0.100308,0.06652 z M 3.3696967,73.4075 c 0.09604,-0.04268 0.231581,-0.165937 0.301193,-0.273898 0.06961,-0.107962 0.200582,-0.162848 0.291042,-0.121968 0.121164,0.05476 0.110827,0.07709 -0.03926,0.08483 -0.112051,0.0058 -0.203729,0.07736 -0.203729,0.15907 0,0.08306 0.102657,0.117884 0.232833,0.07898 0.128058,-0.03827 0.232833,-0.01532 0.232833,0.05101 0,0.06633 -0.222646,0.115864 -0.49477,0.110087 -0.272124,-0.0058 -0.41619,-0.04543 -0.320146,-0.08811 z m 0.290239,-0.701158 c -0.0444,-0.0821 -0.04928,-0.185197 -0.01085,-0.229113 0.03843,-0.04391 0.07067,0.005 0.07165,0.108637 0.0015,0.155196 0.02171,0.153238 0.114634,-0.01108 0.100312,-0.177396 0.113247,-0.177396 0.116416,0 0.0032,0.177396 0.01729,0.177396 0.127063,0 0.109775,-0.177396 0.118206,-0.177396 0.07588,0 -0.05891,0.246906 -0.38546,0.333734 -0.49479,0.131563 z m -0.281049,-1.007459 c 0.0056,-0.154994 0.03317,-0.18652 0.07034,-0.08038 0.03363,0.09604 0.02949,0.210798 -0.0092,0.255009 -0.03868,0.04421 -0.0662,-0.03437 -0.06114,-0.174625 z m 0.357992,0.02132 c 0.1959,-0.245478 0.449186,-0.190154 0.445951,0.09741 -0.0011,0.09946 -0.04116,0.08734 -0.107544,-0.03256 -0.09028,-0.163052 -0.136885,-0.164118 -0.318363,-0.0073 -0.200069,0.1729 -0.201251,0.169506 -0.02004,-0.05756 z M 3.5346717,71.22646 c -0.07265,-0.134349 -0.08339,-0.12902 0.329795,-0.163669 0.17608,-0.01477 0.320146,0.01305 0.320146,0.06182 0,0.139381 -0.580455,0.230339 -0.649941,0.101847 z m 0.126066,-0.514348 c -0.09611,-0.177727 0.03305,-0.399142 0.232833,-0.399142 0.232673,0 0.340027,0.263535 0.180868,0.443997 -0.104043,0.117968 -0.118031,0.09941 -0.05889,-0.07812 0.05518,-0.165661 0.01999,-0.232833 -0.121975,-0.232833 -0.129536,0 -0.176028,0.07001 -0.132526,0.199572 0.07561,0.225171 0.0093,0.26916 -0.100308,0.06652 z M 37.83278,70.207557 c -0.797493,-0.502148 -0.786196,-0.452312 -1.447198,-6.383593 l -0.608954,-5.46424 -1.094512,-2.172544 c -2.812738,-5.583124 -2.985855,-5.895883 -3.286925,-5.938244 -0.333189,-0.04688 -0.218245,-0.483543 -1.49442,5.677182 -0.445149,2.148957 -0.868651,4.034907 -0.941116,4.191 -0.07246,0.156091 -1.417315,2.398883 -2.988559,4.983981 -1.851035,3.045424 -2.969589,4.76683 -3.177154,4.8895 -1.144151,0.676185 -2.909328,-0.49804 -3.092296,-2.057045 -0.03387,-0.28864 0.0039,-0.647273 0.08724,-0.827809 0.08085,-0.175196 1.308216,-2.234423 2.727468,-4.576061 1.419253,-2.341639 2.610843,-4.317396 2.647979,-4.390572 0.03714,-0.07318 0.570641,-2.545708 1.185568,-5.494514 0.956735,-4.587903 1.118049,-5.524366 1.118049,-6.490506 v -1.129041 l -0.405741,0.463706 c -0.659895,0.754164 -1.613095,0.799581 -2.185921,0.104152 -0.220499,-0.267692 -0.643422,-1.581761 -1.657208,-5.149131 -1.295474,-4.55859 -1.455994,-5.290214 -1.291024,-5.884246 0.102824,-0.370249 6.522504,-7.110274 7.032824,-7.383765 0.352418,-0.188867 0.783029,-0.22996 2.439872,-0.232834 2.141695,-0.0037 2.626358,0.102275 2.960458,0.64741 0.09434,0.153925 0.842988,2.366769 1.663672,4.917433 l 1.492151,4.63757 3.319984,2.243196 c 1.825991,1.233757 3.46687,2.384449 3.646398,2.557093 0.179529,0.172642 0.385683,0.539973 0.458123,0.816289 0.35402,1.350415 -1.03149,2.656029 -2.121591,1.999248 -1.400232,-0.843633 -7.449403,-5.034989 -7.6976,-5.33352 l -0.320146,-0.385071 v 3.994818 3.994819 l 2.320501,4.565567 c 1.276276,2.511062 2.40118,4.770627 2.499787,5.021257 0.105402,0.2679 0.444444,2.859898 0.822722,6.289744 0.618895,5.611557 0.636082,5.851763 0.450643,6.298373 -0.302158,0.727717 -0.972877,1.157227 -1.889786,1.210166 -0.592425,0.0342 -0.862507,-0.01408 -1.173288,-0.209768 z m -10.3915,-34.204496 -0.03154,-2.662297 -1.149467,1.223233 -1.149467,1.223233 1.120363,3.957652 c 0.616199,2.176708 1.132286,4.00276 1.14686,4.057894 0.05105,0.193132 0.09449,-5.16298 0.06325,-7.799715 z M 3.6559507,70.038023 c -0.0422,-0.07804 -0.05177,-0.170434 -0.02125,-0.20531 0.03052,-0.03488 0.08651,0.02898 0.12442,0.141899 0.07872,0.234445 0.01162,0.275683 -0.103168,0.06341 z m 0.361522,-0.03015 c 0.04372,-0.131214 0.108813,-0.205056 0.144656,-0.164092 0.03584,0.04096 7.4e-5,0.148321 -0.07949,0.238572 -0.114974,0.130421 -0.128347,0.115139 -0.06517,-0.07448 z m -0.53136,-0.456915 c 0.160073,-0.03329 0.394914,-0.159852 0.521869,-0.281239 0.213238,-0.203885 0.219521,-0.203946 0.08245,-7.98e-4 -0.120402,0.178439 -0.120024,0.232896 0.002,0.288854 0.08271,0.03793 -0.08536,0.06553 -0.373496,0.06134 -0.297964,-0.0043 -0.398369,-0.03372 -0.232833,-0.06815 z m 0.118199,-1.595409 c -0.0012,-0.201036 0.05104,-0.272014 0.163841,-0.222546 0.196613,0.08623 0.342192,0.451205 0.179973,0.451205 -0.06202,0 -0.113566,-0.07484 -0.114546,-0.16631 -0.0012,-0.110873 -0.0394,-0.09979 -0.114634,0.03326 -0.09151,0.161836 -0.113188,0.143759 -0.114634,-0.09561 z m -0.140027,-0.527466 c 0.08404,-0.03843 0.184447,-0.03371 0.223132,0.0105 0.03868,0.04421 -0.03007,0.07566 -0.152797,0.06988 -0.135619,-0.0064 -0.163205,-0.03791 -0.07034,-0.08038 z m 0.465666,0 c 0.08404,-0.03843 0.184448,-0.03371 0.223132,0.0105 0.03868,0.04421 -0.03007,0.07566 -0.152797,0.06988 -0.135618,-0.0064 -0.163204,-0.03791 -0.07034,-0.08038 z m -0.482644,-0.396955 c -0.118338,-0.135243 -0.09256,-0.310444 0.04568,-0.310444 0.06781,0 0.09091,0.05987 0.05134,0.133047 -0.03957,0.07318 -0.01647,0.133048 0.05134,0.133048 0.06781,0 0.12409,-0.07484 0.12507,-0.16631 0.0012,-0.111211 0.03976,-0.100191 0.116417,0.03326 0.101897,0.177397 0.127371,0.177397 0.229268,0 0.09814,-0.170853 0.11489,-0.166066 0.116416,0.03326 0.0013,0.167441 -0.09086,0.232834 -0.328064,0.232834 -0.181416,0 -0.364772,-0.03992 -0.407458,-0.0887 z m 0,-0.665238 c -0.04269,-0.04878 -0.07681,-0.153559 -0.07583,-0.232834 9.8e-4,-0.07927 0.05337,-0.05433 0.116417,0.05544 0.101897,0.177397 0.127371,0.177397 0.229268,0 0.07666,-0.133453 0.115225,-0.144474 0.116417,-0.03326 9.77e-4,0.09147 0.05978,0.16631 0.130654,0.16631 0.07467,0 0.09625,-0.09792 0.05131,-0.232833 -0.05914,-0.17753 -0.04515,-0.196085 0.05889,-0.07812 0.07505,0.08509 0.101255,0.219804 0.05823,0.299357 -0.08574,0.158545 -0.561603,0.197386 -0.685366,0.05594 z m 0.342074,-0.732197 c 0.05627,-0.10405 0.02118,-0.128032 -0.105817,-0.07233 -0.104497,0.04583 -0.217256,0.03291 -0.250575,-0.0287 -0.06784,-0.125451 0.392318,-0.257155 0.609457,-0.174436 0.10326,0.03934 0.09664,0.103023 -0.02518,0.242248 -0.199721,0.228252 -0.344788,0.249401 -0.227882,0.03322 z m -0.366264,-0.65148 c -0.04221,-0.07804 -0.05177,-0.170434 -0.02125,-0.20531 0.03052,-0.03488 0.08651,0.02898 0.124421,0.141899 0.07872,0.234445 0.01163,0.275683 -0.103168,0.06341 z m 0.594356,-0.03015 c 0.04372,-0.131214 0.108813,-0.205055 0.144656,-0.164091 0.03584,0.04096 7.4e-5,0.14832 -0.07949,0.238571 -0.114974,0.130422 -0.128347,0.11514 -0.06517,-0.07448 z m -0.320355,-0.31798 c 0.08404,-0.03843 0.184448,-0.03371 0.223132,0.0105 0.03868,0.04421 -0.03007,0.07566 -0.152797,0.06988 -0.135619,-0.0064 -0.163205,-0.03791 -0.07034,-0.08038 z m -0.325639,-0.408042 c 0.0015,-0.199328 0.01828,-0.204115 0.116416,-0.03326 0.09705,0.168956 0.130691,0.171085 0.219302,0.01387 0.121237,-0.215094 0.478269,-0.103804 0.475633,0.14826 -0.0012,0.119439 -0.03466,0.111062 -0.111569,-0.02797 -0.08743,-0.158055 -0.139215,-0.164828 -0.254334,-0.03326 -0.209089,0.238959 -0.447519,0.202756 -0.445448,-0.06764 z m 0.168055,-0.574304 c -0.0422,-0.07805 -0.0453,-0.17783 -0.0069,-0.221747 0.03843,-0.04391 0.06987,0.0014 0.06987,0.100805 0,0.116056 0.05964,0.08831 0.166788,-0.07761 0.133681,-0.206998 0.196074,-0.22525 0.314325,-0.09195 0.118606,0.133697 0.11879,0.198922 9.43e-4,0.332619 -0.117541,0.133347 -0.131225,0.120162 -0.06904,-0.06652 0.04494,-0.134909 0.02336,-0.232834 -0.05131,-0.232834 -0.07088,0 -0.128872,0.08981 -0.128872,0.199572 0,0.230451 -0.18309,0.266145 -0.295829,0.05767 z m -0.07525,-0.614225 c 0.08404,-0.03843 0.184448,-0.03371 0.223132,0.0105 0.03868,0.04421 -0.03007,0.07566 -0.152797,0.06988 -0.135619,-0.0064 -0.163204,-0.03791 -0.07034,-0.08038 z m 0.370797,-0.241733 c -0.01501,-0.07318 -0.01894,-0.185297 -0.0087,-0.249156 0.0102,-0.06386 -0.0605,-0.08144 -0.157111,-0.03907 -0.09661,0.04237 -0.202918,0.02663 -0.236237,-0.03499 -0.0841,-0.155518 0.469231,-0.260319 0.656785,-0.124395 0.103471,0.07499 0.108674,0.111575 0.01606,0.112954 -0.07534,0.0011 -0.160943,0.106812 -0.190225,0.23487 -0.02928,0.128058 -0.06552,0.172962 -0.08053,0.09979 z M 30.643866,25.59469 c -2.757031,-0.402525 -3.842207,-4.486075 -1.778428,-6.692274 0.764749,-0.817525 1.272394,-1.048776 2.327845,-1.060426 0.696088,-0.0077 0.98933,0.05505 1.446234,0.309391 2.15735,1.200911 2.668511,4.35464 1.021875,6.304694 -0.791283,0.93709 -1.797441,1.316747 -3.017526,1.138615 z"
       id="path121"
       inkscape:connector-curvature="0" />
  </g>
</svg>
